<mxfile host="app.diagrams.net" modified="2021-08-25T14:04:23.956Z" agent="5.0 (Windows NT 6.3; Win64; x64) AppleWebKit/537.36 (KHTML, like Gecko) Chrome/92.0.4515.159 Safari/537.36" etag="irrK0PPKeZVNHjHn8Won" version="14.9.9" type="github">
  <diagram id="lo7euvcDb7fULm5lajTX" name="Page-1">
    <mxGraphModel dx="868" dy="450" grid="1" gridSize="10" guides="1" tooltips="1" connect="1" arrows="1" fold="1" page="1" pageScale="1" pageWidth="827" pageHeight="1169" math="0" shadow="0">
      <root>
        <mxCell id="0" />
        <mxCell id="1" parent="0" />
        <mxCell id="CalxAvy9nDSjSKBvv9ak-1" value="" style="rounded=0;whiteSpace=wrap;html=1;" vertex="1" parent="1">
          <mxGeometry x="50" y="190" width="150" height="60" as="geometry" />
        </mxCell>
        <mxCell id="CalxAvy9nDSjSKBvv9ak-2" value="User" style="text;html=1;strokeColor=none;fillColor=none;align=center;verticalAlign=middle;whiteSpace=wrap;rounded=0;" vertex="1" parent="1">
          <mxGeometry x="105" y="210" width="40" height="20" as="geometry" />
        </mxCell>
        <mxCell id="CalxAvy9nDSjSKBvv9ak-3" value="Id" style="ellipse;whiteSpace=wrap;html=1;" vertex="1" parent="1">
          <mxGeometry y="130" width="50" height="30" as="geometry" />
        </mxCell>
        <mxCell id="CalxAvy9nDSjSKBvv9ak-5" value="" style="endArrow=none;html=1;entryX=1;entryY=1;entryDx=0;entryDy=0;" edge="1" parent="1" target="CalxAvy9nDSjSKBvv9ak-3">
          <mxGeometry width="50" height="50" relative="1" as="geometry">
            <mxPoint x="110" y="190" as="sourcePoint" />
            <mxPoint x="80" y="150" as="targetPoint" />
          </mxGeometry>
        </mxCell>
        <mxCell id="CalxAvy9nDSjSKBvv9ak-6" value="Id" style="ellipse;whiteSpace=wrap;html=1;" vertex="1" parent="1">
          <mxGeometry x="40" y="100" width="50" height="30" as="geometry" />
        </mxCell>
        <mxCell id="CalxAvy9nDSjSKBvv9ak-7" value="firstname" style="ellipse;whiteSpace=wrap;html=1;" vertex="1" parent="1">
          <mxGeometry x="80" y="70" width="60" height="30" as="geometry" />
        </mxCell>
        <mxCell id="CalxAvy9nDSjSKBvv9ak-8" value="lastname" style="ellipse;whiteSpace=wrap;html=1;" vertex="1" parent="1">
          <mxGeometry x="130" y="50" width="60" height="30" as="geometry" />
        </mxCell>
        <mxCell id="CalxAvy9nDSjSKBvv9ak-9" value="password" style="ellipse;whiteSpace=wrap;html=1;" vertex="1" parent="1">
          <mxGeometry x="190" y="50" width="60" height="30" as="geometry" />
        </mxCell>
        <mxCell id="CalxAvy9nDSjSKBvv9ak-10" value="email" style="ellipse;whiteSpace=wrap;html=1;" vertex="1" parent="1">
          <mxGeometry x="230" y="80" width="50" height="30" as="geometry" />
        </mxCell>
        <mxCell id="CalxAvy9nDSjSKBvv9ak-11" value="phone" style="ellipse;whiteSpace=wrap;html=1;" vertex="1" parent="1">
          <mxGeometry x="270" y="100" width="50" height="30" as="geometry" />
        </mxCell>
        <mxCell id="CalxAvy9nDSjSKBvv9ak-16" value="" style="endArrow=none;html=1;entryX=0.64;entryY=1;entryDx=0;entryDy=0;entryPerimeter=0;" edge="1" parent="1" target="CalxAvy9nDSjSKBvv9ak-6">
          <mxGeometry width="50" height="50" relative="1" as="geometry">
            <mxPoint x="108" y="189" as="sourcePoint" />
            <mxPoint x="155" y="120" as="targetPoint" />
          </mxGeometry>
        </mxCell>
        <mxCell id="CalxAvy9nDSjSKBvv9ak-17" value="" style="endArrow=none;html=1;" edge="1" parent="1" target="CalxAvy9nDSjSKBvv9ak-7">
          <mxGeometry width="50" height="50" relative="1" as="geometry">
            <mxPoint x="107" y="188" as="sourcePoint" />
            <mxPoint x="190" y="90" as="targetPoint" />
          </mxGeometry>
        </mxCell>
        <mxCell id="CalxAvy9nDSjSKBvv9ak-18" value="" style="endArrow=none;html=1;entryX=0.5;entryY=1;entryDx=0;entryDy=0;" edge="1" parent="1" target="CalxAvy9nDSjSKBvv9ak-8">
          <mxGeometry width="50" height="50" relative="1" as="geometry">
            <mxPoint x="110" y="190" as="sourcePoint" />
            <mxPoint x="210" y="70" as="targetPoint" />
          </mxGeometry>
        </mxCell>
        <mxCell id="CalxAvy9nDSjSKBvv9ak-19" value="" style="endArrow=none;html=1;exitX=0.387;exitY=-0.067;exitDx=0;exitDy=0;exitPerimeter=0;entryX=0.34;entryY=1.033;entryDx=0;entryDy=0;entryPerimeter=0;" edge="1" parent="1" source="CalxAvy9nDSjSKBvv9ak-1" target="CalxAvy9nDSjSKBvv9ak-9">
          <mxGeometry width="50" height="50" relative="1" as="geometry">
            <mxPoint x="180" y="140" as="sourcePoint" />
            <mxPoint x="230" y="90" as="targetPoint" />
          </mxGeometry>
        </mxCell>
        <mxCell id="CalxAvy9nDSjSKBvv9ak-20" value="" style="endArrow=none;html=1;" edge="1" parent="1" target="CalxAvy9nDSjSKBvv9ak-10">
          <mxGeometry width="50" height="50" relative="1" as="geometry">
            <mxPoint x="110" y="190" as="sourcePoint" />
            <mxPoint x="190" y="140" as="targetPoint" />
          </mxGeometry>
        </mxCell>
        <mxCell id="CalxAvy9nDSjSKBvv9ak-23" value="enable" style="ellipse;whiteSpace=wrap;html=1;" vertex="1" parent="1">
          <mxGeometry x="280" y="140" width="60" height="30" as="geometry" />
        </mxCell>
        <mxCell id="CalxAvy9nDSjSKBvv9ak-24" value="" style="endArrow=none;html=1;" edge="1" parent="1">
          <mxGeometry width="50" height="50" relative="1" as="geometry">
            <mxPoint x="110" y="190" as="sourcePoint" />
            <mxPoint x="280" y="130" as="targetPoint" />
          </mxGeometry>
        </mxCell>
        <mxCell id="CalxAvy9nDSjSKBvv9ak-25" value="" style="endArrow=none;html=1;exitX=0.447;exitY=0.017;exitDx=0;exitDy=0;exitPerimeter=0;entryX=0;entryY=0.5;entryDx=0;entryDy=0;" edge="1" parent="1" source="CalxAvy9nDSjSKBvv9ak-1" target="CalxAvy9nDSjSKBvv9ak-23">
          <mxGeometry width="50" height="50" relative="1" as="geometry">
            <mxPoint x="220" y="200" as="sourcePoint" />
            <mxPoint x="270" y="150" as="targetPoint" />
          </mxGeometry>
        </mxCell>
        <mxCell id="CalxAvy9nDSjSKBvv9ak-27" value="Role" style="rounded=0;whiteSpace=wrap;html=1;" vertex="1" parent="1">
          <mxGeometry x="640" y="190" width="120" height="60" as="geometry" />
        </mxCell>
      </root>
    </mxGraphModel>
  </diagram>
</mxfile>
